:FULLY-SPECIFIED
:FORCE-ALL-JOINTS-BE-3DOF
:DEGREES
577
root 6.99389 16.3633 -3.56645 -166.501 76.3333 -173.397
lfemur -17.0906 -2.80736 -19.3025
ltibia 44.8829 -0 0
lfoot -32.5038 10.183 0.00260208
ltoes 6.91399 -0 0
rfemur -51.9915 -12.6852 13.8498
rtibia 48.8299 -0 0
rfoot 11.0229 5.58989 0.0298355
rtoes -29.5526 0 0
lowerback 6.61663 -0.686451 -2.31352
upperback 2.38616 -0.903594 3.3905
thorax -1.15131 -0.430145 4.88017
lowerneck -5.3692 -13.4811 -3.99178
upperneck 10.5619 -18.2741 5.15419
head 4.89337 -8.82861 1.02323
lclavicle -0 0 0
lhumerus -39.5335 -17.8411 92.6699
lradius 54.9654 -0 0
lwrist 22.9968 0 0
lhand -21.1419 -3.84208 0.00229272
lfingers 0 -0 0
lthumb 5.23731 26.073 0.00219615
rclavicle -0 0 0
rhumerus 28.2883 15.4818 -73.8598
rradius 133.935 -0 0
rwrist -45.6267 0 0
rhand -25.7925 -21.204 0.00186854
rfingers 0 -0 0
rthumb 0.746137 -51.1819 0.00180981
578
root 6.93645 16.375 -3.55819 -165.793 77.1781 -172.628
lfemur -16.9831 -2.70375 -19.3588
ltibia 44.5663 -0 0
lfoot -32.4235 10.5541 0.00312251
ltoes 7.43789 -0 0
rfemur -52.1615 -12.9956 14.0113
rtibia 50.7324 -0 0
rfoot 11.686 6.1056 0.0358039
rtoes -28.2783 0 0
lowerback 6.42801 -0.682828 -2.42709
upperback 2.33689 -0.912137 3.27351
thorax -1.09657 -0.437638 4.81997
lowerneck -5.43321 -13.4487 -3.93455
upperneck 10.7732 -18.2456 5.14822
head 4.96249 -8.80508 1.00372
lclavicle -0 0 0
lhumerus -38.5051 -18.5713 91.8911
lradius 54.7563 -0 0
lwrist 23.3771 0 0
lhand -21.0498 -3.55695 0.00275128
lfingers 0 -0 0
lthumb 5.32628 26.3559 0.00263539
rclavicle -0 0 0
rhumerus 28.1828 15.4738 -73.8239
rradius 133.942 -0 0
rwrist -45.6297 0 0
rhand -25.6749 -21.0219 0.00224225
rfingers 0 -0 0
rthumb 0.859731 -50.9993 0.00217178
579
root 6.87901 16.3868 -3.54994 -164.982 78.0204 -171.754
lfemur -16.8758 -2.60004 -19.415
ltibia 44.2497 -0 0
lfoot -32.3431 10.9253 0.00312251
ltoes 7.9618 -0 0
rfemur -52.3325 -13.3055 14.174
rtibia 52.6348 -0 0
rfoot 12.349 6.62134 0.0358039
rtoes -27.0039 0 0
lowerback 6.23939 -0.679578 -2.54068
upperback 2.28764 -0.920781 3.15653
thorax -1.04182 -0.445074 4.75976
lowerneck -5.49719 -13.4162 -3.87738
upperneck 10.9844 -18.2171 5.14236
head 5.03161 -8.78153 0.984252
lclavicle -0 0 0
lhumerus -37.4617 -19.288 91.0951
lradius 54.5471 -0 0
lwrist 23.7573 0 0
lhand -20.9576 -3.27183 0.00275128
lfingers 0 -0 0
lthumb 5.41525 26.6388 0.00263539
rclavicle -0 0 0
rhumerus 28.0773 15.4659 -73.788
rradius 133.949 -0 0
rwrist -45.6327 0 0
rhand -25.5573 -20.8398 0.00224225
rfingers 0 -0 0
rthumb 0.973325 -50.8167 0.00217178
580
root 6.82157 16.3985 -3.54168 -164.044 78.8599 -170.754
lfemur -16.7685 -2.49622 -19.4709
ltibia 43.9331 -0 0
lfoot -32.2628 11.2964 0.00260208
ltoes 8.4857 -0 0
rfemur -52.5047 -13.615 14.3378
rtibia 54.5373 -0 0
rfoot 13.0121 7.13705 0.0298355
rtoes -25.7296 0 0
lowerback 6.05076 -0.676702 -2.65428
upperback 2.2384 -0.929526 3.03956
thorax -0.987065 -0.452452 4.69954
lowerneck -5.56112 -13.3837 -3.82024
upperneck 11.1956 -18.1885 5.13661
head 5.10071 -8.75795 0.96481
lclavicle -0 0 0
lhumerus -36.4033 -19.9908 90.2819
lradius 54.338 -0 0
lwrist 24.1376 0 0
lhand -20.8655 -2.9867 0.00229272
lfingers 0 -0 0
lthumb 5.50422 26.9217 0.00219615
rclavicle -0 0 0
rhumerus 27.9718 15.4581 -73.7521
rradius 133.956 -0 0
rwrist -45.6357 0 0
rhand -25.4397 -20.6577 0.00186854
rfingers 0 -0 0
rthumb 1.08692 -50.6341 0.00180981
581
root 6.76412 16.4102 -3.53343 -162.948 79.6956 -169.598
lfemur -16.6613 -2.3923 -19.5266
ltibia 43.6165 -0 0
lfoot -32.1824 11.6675 0.00156122
ltoes 9.00961 -0 0
rfemur -52.678 -13.9239 14.5028
rtibia 56.4398 -0 0
rfoot 13.6751 7.65265 0.0179
rtoes -24.4552 0 0
lowerback 5.86213 -0.674201 -2.76789
upperback 2.18919 -0.938371 2.9226
thorax -0.932302 -0.459772 4.63931
lowerneck -5.62501 -13.3511 -3.76315
upperneck 11.4068 -18.16 5.13098
head 5.16979 -8.73435 0.945398
lclavicle -0 0 0
lhumerus -35.3295 -20.6791 89.4512
lradius 54.1288 -0 0
lwrist 24.5178 0 0
lhand -20.7733 -2.70158 0.00137562
lfingers 0 -0 0
lthumb 5.59318 27.2045 0.00131768
rclavicle -0 0 0
rhumerus 27.8663 15.4503 -73.7162
rradius 133.962 -0 0
rwrist -45.6388 0 0
rhand -25.3221 -20.4757 0.00112112
rfingers 0 -0 0
rthumb 1.20051 -50.4516 0.00108588
582
root 6.70668 16.4219 -3.52517 -161.655 80.5267 -168.243
lfemur -16.5543 -2.28828 -19.5821
ltibia 43.2999 0 0
lfoot -32.1021 12.0386 0
ltoes 9.53351 0 0
rfemur -52.8524 -14.2324 14.669
rtibia 58.3423 0 0
rfoot 14.3379 8.16808 0
rtoes -23.1809 0 0
lowerback 5.67349 -0.672073 -2.8815
upperback 2.13999 -0.947316 2.80564
thorax -0.877532 -0.467035 4.57908
lowerneck -5.68886 -13.3185 -3.70611
upperneck 11.6179 -18.1314 5.12545
head 5.23887 -8.71073 0.926016
lclavicle 1.70955e-14 1.94809e-14 0
lhumerus -34.2402 -21.3527 88.6031
lradius 53.9197 0 0
lwrist 24.8981 0 0
lhand -20.6812 -2.41646 0
lfingers 7.12502 0 0
lthumb 5.68214 27.4874 0
rclavicle 1.70955e-14 1.94809e-14 0
rhumerus 27.7608 15.4426 -73.6802
rradius 133.969 0 0
rwrist -45.6418 0 0
rhand -25.2045 -20.2936 0
rfingers 7.12502 0 0
rthumb 1.3141 -770.269 0
583
root 6.65889 16.4176 -3.50878 -160.094 81.2662 -166.523
lfemur -16.6139 -1.14868 -19.4778
ltibia 43.4818 -0 0
lfoot -32.0648 12.0837 8.80198e-05
ltoes 8.46151 -0 0
rfemur -52.0219 -14.0288 14.7038
rtibia 58.3299 -0 0
rfoot 13.9561 8.1931 -0.000500243
rtoes -22.5347 0 0
lowerback 5.56359 -0.728273 -3.15073
upperback 2.13515 -1.03783 2.75216
thorax -0.805526 -0.516093 4.67883
lowerneck -5.65909 -13.3027 -3.72354
upperneck 11.6965 -18.1349 5.27722
head 5.27483 -8.70187 0.970411
lclavicle 0 0 0
lhumerus -33.164 -22.0041 88.195
lradius 53.8031 -0 0
lwrist 24.8432 0 0
lhand -20.55 -2.3894 0.000185902
lfingers 0 -0 0
lthumb 5.8088 27.5108 0.00015509
rclavicle 0 0 0
rhumerus 27.4484 15.61 -73.5709
rradius 133.971 -0 0
rwrist -45.4329 0 0
rhand -25.2689 -20.1348 -0.00053526
rfingers 0 -0 0
rthumb 1.25194 -50.1106 -0.000515678
584
root 6.6111 16.4132 -3.49239 -158.233 81.9973 -164.503
lfemur -16.6713 -0.00896543 -19.3748
ltibia 43.6636 -0 0
lfoot -32.0275 12.1288 0.0001467
ltoes 7.38951 -0 0
rfemur -51.1919 -13.8258 14.7417
rtibia 58.3176 -0 0
rfoot 13.5743 8.21812 -0.000833751
rtoes -21.8885 0 0
lowerback 5.45395 -0.784988 -3.41986
upperback 2.1304 -1.12834 2.6987
thorax -0.733604 -0.565275 4.77853
lowerneck -5.62933 -13.2868 -3.74096
upperneck 11.775 -18.1386 5.42898
head 5.31079 -8.69303 1.01481
lclavicle 0 0 0
lhumerus -32.0778 -22.6481 87.7717
lradius 53.6865 -0 0
lwrist 24.7883 0 0
lhand -20.4188 -2.36233 0.000309836
lfingers 0 -0 0
lthumb 5.93546 27.5342 0.000258484
rclavicle 0 0 0
rhumerus 27.136 15.778 -73.4624
rradius 133.973 -0 0
rwrist -45.2241 0 0
rhand -25.3332 -19.9759 -0.000892103
rfingers 0 -0 0
rthumb 1.18977 -49.9521 -0.000859467
585
root 6.56331 16.4089 -3.476 -155.984 82.7175 -162.096
lfemur -16.7268 1.13085 -19.2728
ltibia 43.8455 -0 0
lfoot -31.9902 12.1739 0.00017604
ltoes 6.31751 -0 0
rfemur -50.3626 -13.6233 14.7825
rtibia 58.3052 -0 0
rfoot 13.1925 8.24315 -0.00100051
rtoes -21.2423 0 0
lowerback 5.34458 -0.842218 -3.68888
upperback 2.12574 -1.21886 2.64523
thorax -0.661768 -0.614583 4.87816
lowerneck -5.59957 -13.2709 -3.75836
upperneck 11.8535 -18.1426 5.58075
head 5.34676 -8.68422 1.05922
lclavicle 0 0 0
lhumerus -30.9813 -23.2846 87.3333
lradius 53.5699 -0 0
lwrist 24.7334 0 0
lhand -20.2876 -2.33527 0.000371804
lfingers 0 -0 0
lthumb 6.06212 27.5576 0.000310182
rclavicle 0 0 0
rhumerus 26.8237 15.9466 -73.3548
rradius 133.975 -0 0
rwrist -45.0152 0 0
rhand -25.3976 -19.8171 -0.00107053
rfingers 0 -0 0
rthumb 1.12761 -49.7937 -0.00103136
586
root 6.51552 16.4046 -3.4596 -153.232 83.423 -159.185
lfemur -16.7802 2.27075 -19.1719
ltibia 44.0274 -0 0
lfoot -31.953 12.2189 0.00017604
ltoes 5.24552 -0 0
rfemur -49.5338 -13.4214 14.8264
rtibia 58.2928 -0 0
rfoot 12.8107 8.26817 -0.00100051
rtoes -20.5962 0 0
lowerback 5.23548 -0.899961 -3.9578
upperback 2.12115 -1.30939 2.59177
thorax -0.590017 -0.664016 4.97773
lowerneck -5.56982 -13.2551 -3.77576
upperneck 11.9321 -18.1467 5.73251
head 5.38274 -8.67544 1.10363
lclavicle 0 0 0
lhumerus -29.8742 -23.9133 86.8794
lradius 53.4533 -0 0
lwrist 24.6785 0 0
lhand -20.1565 -2.3082 0.000371804
lfingers 0 -0 0
lthumb 6.18877 27.5809 0.000310182
rclavicle 0 0 0
rhumerus 26.5115 16.1158 -73.2481
rradius 133.976 -0 0
rwrist -44.8064 0 0
rhand -25.4619 -19.6582 -0.00107053
rfingers 0 -0 0
rthumb 1.06544 -49.6353 -0.00103136
587
root 6.46773 16.4003 -3.44321 -149.811 84.1088 -155.606
lfemur -16.8317 3.41075 -19.072
ltibia 44.2093 -0 0
lfoot -31.9157 12.264 0.0001467
ltoes 4.17352 -0 0
rfemur -48.7055 -13.2201 14.8731
rtibia 58.2804 -0 0
rfoot 12.4289 8.2932 -0.000833751
rtoes -19.95 0 0
lowerback 5.12665 -0.958215 -4.22661
upperback 2.11665 -1.39992 2.53832
thorax -0.518351 -0.713573 5.07724
lowerneck -5.54008 -13.2392 -3.79315
upperneck 12.0106 -18.151 5.88427
head 5.41872 -8.66669 1.14804
lclavicle 0 0 0
lhumerus -28.7562 -24.5337 86.4101
lradius 53.3367 -0 0
lwrist 24.6236 0 0
lhand -20.0253 -2.28114 0.000309836
lfingers 0 -0 0
lthumb 6.31543 27.6043 0.000258484
rclavicle 0 0 0
rhumerus 26.1993 16.2855 -73.1422
rradius 133.978 -0 0
rwrist -44.5975 0 0
rhand -25.5263 -19.4994 -0.000892103
rfingers 0 -0 0
rthumb 1.00327 -49.4769 -0.000859467
588
root 6.41994 16.3959 -3.42682 -145.491 84.7669 -151.127
lfemur -16.8812 4.55084 -18.9729
ltibia 44.3911 -0 0
lfoot -31.8784 12.3091 8.80198e-05
ltoes 3.10152 -0 0
rfemur -47.8778 -13.0196 14.9229
rtibia 58.2681 -0 0
rfoot 12.0471 8.31822 -0.000500243
rtoes -19.3038 0 0
lowerback 5.01809 -1.01698 -4.49531
upperback 2.11224 -1.49045 2.48487
thorax -0.446771 -0.763254 5.17669
lowerneck -5.51035 -13.2233 -3.81053
upperneck 12.0891 -18.1555 6.03603
head 5.45471 -8.65797 1.19246
lclavicle 0 0 0
lhumerus -27.6271 -25.1456 85.9252
lradius 53.2201 -0 0
lwrist 24.5687 0 0
lhand -19.8941 -2.25407 0.000185902
lfingers 0 -0 0
lthumb 6.44209 27.6277 0.00015509
rclavicle 0 0 0
rhumerus 25.8872 16.4557 -73.0372
rradius 133.98 -0 0
rwrist -44.3887 0 0
rhand -25.5906 -19.3405 -0.00053526
rfingers 0 -0 0
rthumb 0.94111 -49.3184 -0.000515678
589
root 6.37215 16.3916 -3.41043 -139.95 85.3855 -145.428
lfemur -16.9289 5.69101 -18.8747
ltibia 44.573 0 0
lfoot -31.8411 12.3542 0
ltoes 2.02952 0 0
rfemur -47.0505 -12.8197 14.9755
rtibia 58.2557 0 0
rfoot 11.6653 8.34324 0
rtoes -18.6576 0 0
lowerback 4.90981 -1.07625 -4.76391
upperback 2.10791 -1.58099 2.43143
thorax -0.375276 -0.81306 5.27608
lowerneck -5.48062 -13.2074 -3.8279
upperneck 12.1676 -18.1602 6.18778
head 5.4907 -8.64927 1.23688
lclavicle 9.95166e-15 5.51627e-15 0
lhumerus -26.4865 -25.7487 85.4245
lradius 53.1035 0 0
lwrist 24.5138 0 0
lhand -19.7629 -2.22701 0
lfingers 7.12502 0 0
lthumb 6.56875 27.6511 0
rclavicle 9.95166e-15 5.51627e-15 0
rhumerus 25.5751 16.6265 -72.9331
rradius 133.982 0 0
rwrist -44.1798 0 0
rhand -25.655 -19.1817 0
rfingers 7.12502 0 0
rthumb 0.878946 -769.16 0
590
root 6.32615 16.3939 -3.41009 -123.635 86.5289 -129.175
lfemur -17.0653 7.28527 -18.9119
ltibia 44.6103 -0 0
lfoot -31.7836 12.4919 0.000414909
ltoes 1.741 -0 0
rfemur -46.6564 -12.5142 15.4346
rtibia 56.9611 -0 0
rfoot 10.7995 9.12679 -0.0355665
rtoes -19.7934 0 0
lowerback 4.72699 -1.13471 -5.00466
upperback 2.03707 -1.66684 2.31125
thorax -0.330515 -0.858283 5.28593
lowerneck -5.51676 -13.1211 -3.78884
upperneck 12.3439 -18.0759 6.28976
head 5.55397 -8.59332 1.26032
lclavicle -0 0 0
lhumerus -25.9893 -26.2358 85.4852
lradius 53.1911 -0 0
lwrist 24.5596 0 0
lhand -19.53 -2.24422 -0.000209849
lfingers 0 -0 0
lthumb 6.79357 27.626 -0.000294962
rclavicle -0 0 0
rhumerus 25.3168 16.3744 -73.0046
rradius 133.762 -0 0
rwrist -44.6838 0 0
rhand -25.9778 -19.473 0.00492525
rfingers 0 -0 0
rthumb 0.56716 -49.451 0.00475104
